<svg width="20" height="20" viewBox="0 0 20 20" fill="none" xmlns="http://www.w3.org/2000/svg">
<g id="checkbox">
<path id="Exclude" fill-rule="evenodd" clip-rule="evenodd" d="M3 1C1.89543 1 1 1.89543 1 3V17C1 18.1046 1.89543 19 3 19H17C18.1046 19 19 18.1046 19 17V3C19 1.89543 18.1046 1 17 1H3ZM15.4888 7.50108C15.7656 7.23113 15.7711 6.78795 15.5012 6.5112C15.2312 6.23446 14.788 6.22895 14.5113 6.4989L8.4237 12.437L5.53416 9.02627C5.28426 8.7313 4.84256 8.69475 4.54758 8.94465C4.25261 9.19455 4.21607 9.63626 4.46597 9.93123L7.84088 13.9149C7.96639 14.063 8.1478 14.1524 8.34175 14.1616C8.5357 14.1708 8.72477 14.0991 8.86376 13.9635L15.4888 7.50108Z" fill="#0770E9"/>
</g>
</svg>
