<svg width="24" height="24" viewBox="0 0 24 24" fill="none" xmlns="http://www.w3.org/2000/svg">
<path fill-rule="evenodd" clip-rule="evenodd" d="M17.6 11C17.6 15.1974 14.1974 18.6 10 18.6C5.80264 18.6 2.4 15.1974 2.4 11C2.4 6.80264 5.80264 3.4 10 3.4C14.1974 3.4 17.6 6.80264 17.6 11ZM15.62 18.03C14.08 19.2628 12.1261 20 10 20C5.02944 20 1 15.9706 1 11C1 6.02944 5.02944 2 10 2C14.9706 2 19 6.02944 19 11C19 13.3403 18.1067 15.472 16.6426 17.0727L20.495 20.9251C20.7683 21.1984 20.7683 21.6417 20.495 21.915C20.2216 22.1884 19.7784 22.1884 19.505 21.915L15.62 18.03Z" fill="#303030"/>
</svg>
