<?xml version="1.0" encoding="UTF-8"?>
<svg xmlns="http://www.w3.org/2000/svg" version="1.1" viewBox="0 0 78.9 132.69">
  <defs>
    <style>
      .cls-1 {
        fill: #51c3c5;
      }
    </style>
  </defs>
  <!-- Generator: Adobe Illustrator 28.6.0, SVG Export Plug-In . SVG Version: 1.2.0 Build 709)  -->
  <g>
    <g id="Layer_1">
      <g id="Layer_1-2" data-name="Layer_1">
        <g id="Layer_1-2">
          <g>
            <path class="cls-1" d="M60.52,46.33H18.38c-4.21,0-8.59,2.32-11.44,6.06-2.52,3.3-3.41,7.22-2.45,10.76l14.25,54.91c.02.06.03.11.05.17,3.18,10.52,9.29,12.73,13.85,12.73h13.63c4.57,0,10.67-2.21,13.85-12.73.02-.06.03-.12.05-.17l14.25-54.91c.96-3.54.06-7.46-2.46-10.76-2.85-3.73-7.23-6.05-11.44-6.05h0Z"/>
            <path class="cls-1" d="M39.45,42.94c10.83,0,19.65-8.82,19.65-19.65S50.28,3.64,39.45,3.64s-19.65,8.81-19.65,19.64,8.81,19.65,19.65,19.65h0Z"/>
          </g>
        </g>
      </g>
    </g>
  </g>
</svg>