<?xml version="1.0" encoding="UTF-8"?>
<svg xmlns="http://www.w3.org/2000/svg" version="1.1" viewBox="0 0 441.74 106">
  <defs>
    <style>
      .cls-1 {
        fill: #17a77b;
      }

      .cls-2 {
        fill: #fbdc50;
      }
    </style>
  </defs>
  <!-- Generator: Adobe Illustrator 28.6.0, SVG Export Plug-In . SVG Version: 1.2.0 Build 709)  -->
  <g>
    <g id="Layer_1">
      <g>
        <g>
          <path class="cls-1" d="M73.84,74.1c-2.8,9.44-7.42,16.57-13.86,21.4-6.44,4.83-14.31,7.24-23.6,7.24-3.78,0-7.59-.36-11.44-1.09-2.98-.56-5.56-1.23-7.73-2.01-.95-.34-1.32-1.48-.78-2.33l4.14-6.5c.41-.65,1.22-.89,1.93-.61.94.37,2.05.72,3.34,1.04,1.89.47,3.91.83,6.05,1.09,2.14.25,4.19.38,6.15.38,5.88,0,10.78-1.33,14.68-3.98,3.91-2.65,6.71-6.85,8.41-12.58l.9-3.05c-2.01,2.11-4.67,3.8-7.98,5.07-3.32,1.27-7.01,1.91-11.08,1.91-4.72,0-8.63-.89-11.74-2.67-3.1-1.78-5.18-4.34-6.22-7.68-1.04-3.34-.9-7.26.44-11.76l8.69-28.86c.56-1.89,1.58-3.32,3.07-4.3,1.49-.98,3.21-1.47,5.17-1.47,1.02,0,2.04.11,3.06.33.37.08.72.17,1.03.27.82.25,1.28,1.13,1.03,1.96l-8.9,29.58c-1.33,4.5-1.13,7.97.62,10.4,1.75,2.43,4.84,3.65,9.27,3.65s8.58-1.32,11.8-3.98c3.22-2.65,5.55-6.41,6.99-11.27l7.59-25.16c.56-1.89,1.58-3.32,3.07-4.3,1.49-.98,3.21-1.47,5.17-1.47,1.02,0,2.04.11,3.06.33.37.08.72.17,1.03.27.82.25,1.28,1.13,1.03,1.96l-14.42,48.21Z"/>
          <path class="cls-1" d="M130.88,78.18c-.18.6-.69,1.04-1.31,1.12-3.63.45-7.5.83-11.61,1.12-4.49.33-8.52.49-12.07.49-9.01,0-15.47-1.42-19.38-4.25-3.92-2.83-4.93-7.44-3.04-13.83,1.68-5.66,5.02-10.02,10.03-13.07,5.01-3.05,12.12-4.58,21.34-4.58,2.1,0,4.44.07,7.02.22,1.88.11,3.48.23,4.8.38.8.09,1.54-.44,1.72-1.22.84-3.72.32-6.49-1.58-8.3-2.12-2.03-5.87-3.05-11.24-3.05-3.41,0-6.63.36-9.64,1.09-2.31.56-4.2,1.22-5.65,1.99-.83.44-1.85.1-2.23-.77-.13-.29-.23-.61-.32-.95-.27-1.05-.23-2.16.11-3.32.73-2.47,2.84-4.43,6.32-5.88,3.48-1.45,8.2-2.18,14.15-2.18,9.51,0,16.13,1.94,19.84,5.83,3.71,3.88,4.43,9.68,2.15,17.37l-9.42,31.8ZM97.51,69.86c2.07,1.35,5.76,2.02,11.06,2.02,2.18,0,4.42-.09,6.72-.27,1.79-.14,3.28-.31,4.47-.52.59-.1,1.07-.53,1.24-1.11l3.95-13.33c.27-.91-.32-1.85-1.25-2.01-1.21-.2-2.63-.35-4.28-.47-2.53-.18-4.77-.27-6.73-.27-5.3,0-9.22.78-11.75,2.34-2.53,1.56-4.25,3.87-5.15,6.92-.93,3.12-.35,5.36,1.72,6.7Z"/>
          <path class="cls-1" d="M174.01,49.28c-.91.51-1.06,1.73-.33,2.48,3.78,3.84,7.29,8.09,10.54,12.75,3.15,4.52,5.76,9.06,7.83,13.6.48,1.05-.28,2.24-1.43,2.24h-12.1c-.59,0-1.12-.33-1.39-.85-1.16-2.22-2.61-4.59-4.34-7.1-1.96-2.83-4.16-5.68-6.62-8.55-1.89-2.21-3.86-4.32-5.91-6.33-.84-.83-2.27-.44-2.6.69l-6.23,21.01c-.2.67-.81,1.13-1.51,1.13h-9.13c-1.05,0-1.81-1.01-1.51-2.02L160.2,7.98c.56-1.89,1.6-3.32,3.13-4.3,1.53-.98,3.27-1.47,5.23-1.47,1.02,0,2.04.11,3.06.33.33.07.63.15.91.23.83.25,1.3,1.13,1.06,1.96l-11.1,37.21c-.41,1.38,1.09,2.54,2.32,1.8l18.26-11.04c2.32-1.45,4.35-2.41,6.08-2.89,1.74-.47,3.22-.71,4.46-.71,2.03,0,3.54.42,4.53,1.25.58.49,1.03,1.04,1.35,1.65.37.71.17,1.58-.49,2.04-1.25.86-2.9,1.94-4.98,3.23-2.67,1.67-5.65,3.5-8.93,5.5"/>
          <path class="cls-1" d="M212.37,10.38c.56-1.89,1.6-3.32,3.13-4.3,1.52-.98,3.27-1.47,5.23-1.47,1.02,0,2.04.11,3.06.33.33.07.63.15.91.23.83.25,1.3,1.13,1.06,1.96l-6.79,22.9c-.42,1.42,1.16,2.58,2.39,1.75,1.81-1.23,3.74-2.27,5.81-3.12,3.6-1.49,7.4-2.23,11.39-2.23,5.23,0,9.58,1.25,13.05,3.76,3.47,2.51,5.8,5.92,6.99,10.24,1.19,4.32.95,9.28-.7,14.87-1.66,5.59-4.4,10.57-8.23,14.92-3.83,4.36-8.37,7.77-13.6,10.24-5.23,2.47-10.83,3.7-16.78,3.7s-10.59-1.25-14.14-3.76c-3.54-2.51-5.8-6.12-6.76-10.84-.96-4.72-.47-10.35,1.46-16.88l12.53-42.29ZM244.19,42.33c-2.15-3.27-5.7-4.9-10.64-4.9s-9.47,1.63-13.6,4.9c-4.13,3.27-6.98,7.55-8.55,12.85-1.57,5.3-1.26,9.58.93,12.85,2.19,3.27,5.75,4.9,10.69,4.9s9.45-1.63,13.54-4.9c4.09-3.27,6.92-7.55,8.49-12.85,1.57-5.3,1.28-9.59-.87-12.85Z"/>
          <path class="cls-1" d="M307.35,78.18c-.18.6-.69,1.04-1.31,1.12-3.63.45-7.5.83-11.61,1.12-4.49.33-8.52.49-12.07.49-9.01,0-15.47-1.42-19.38-4.25-3.92-2.83-4.93-7.44-3.04-13.83,1.68-5.66,5.02-10.02,10.03-13.07,5.01-3.05,12.12-4.58,21.34-4.58,2.1,0,4.44.07,7.02.22,1.88.11,3.48.23,4.8.38.8.09,1.54-.44,1.72-1.22.84-3.72.32-6.49-1.58-8.3-2.12-2.03-5.87-3.05-11.24-3.05-3.41,0-6.63.36-9.64,1.09-2.31.56-4.2,1.22-5.65,1.99-.83.44-1.85.1-2.23-.77-.13-.29-.23-.61-.32-.95-.27-1.05-.23-2.16.11-3.32.73-2.47,2.84-4.43,6.32-5.88,3.48-1.45,8.2-2.18,14.15-2.18,9.51,0,16.13,1.94,19.84,5.83,3.71,3.88,4.43,9.68,2.15,17.37l-9.42,31.8ZM273.98,69.86c2.07,1.35,5.76,2.02,11.06,2.02,2.18,0,4.42-.09,6.72-.27,1.79-.14,3.28-.31,4.47-.52.59-.1,1.07-.53,1.24-1.11l3.95-13.33c.27-.91-.32-1.85-1.25-2.01-1.21-.2-2.63-.35-4.28-.47-2.53-.18-4.77-.27-6.73-.27-5.3,0-9.22.78-11.75,2.34-2.53,1.56-4.25,3.87-5.15,6.92-.93,3.12-.35,5.36,1.72,6.7Z"/>
          <path class="cls-1" d="M323.07,47.15c1.38-4.65,3.69-8.72,6.94-12.2,3.25-3.49,7.15-6.19,11.72-8.12,4.56-1.92,9.5-2.89,14.8-2.89s9.75.96,13.14,2.89c3.39,1.92,5.67,4.63,6.85,8.12,1.18,3.49,1.08,7.55-.29,12.2l-9.45,31.88c-.2.67-.81,1.13-1.51,1.13h-9.13c-1.05,0-1.81-1.01-1.51-2.02l8.24-27.82c1.46-4.94,1.38-8.7-.25-11.27-1.63-2.58-4.77-3.87-9.42-3.87-9.44,0-15.66,5.05-18.65,15.14l-8.51,28.72c-.2.67-.81,1.13-1.51,1.13h-9.13c-1.05,0-1.81-1.01-1.51-2.02l9.18-30.98Z"/>
          <path class="cls-1" d="M392.8,103.03c-3.85,0-7.71-.4-11.57-1.2-2.99-.62-5.5-1.37-7.52-2.24-.89-.39-1.2-1.5-.66-2.31l4.37-6.61c.42-.64,1.24-.88,1.95-.57,1.62.7,3.66,1.33,6.14,1.88,3.14.69,6.23,1.04,9.28,1.04,6.25,0,11.58-1.65,16.01-4.96,4.43-3.31,7.59-8.15,9.48-14.54l.39-1.31c-2.77,2.47-5.91,4.45-9.44,5.94-3.53,1.49-7.36,2.23-11.5,2.23-5.16,0-9.5-1.14-13.04-3.43-3.53-2.29-5.94-5.5-7.22-9.64-1.25-4.06-1.11-8.78.44-14.17,1.63-5.68,4.54-10.94,8.47-15.35,3.73-4.19,8.16-7.53,13.26-10.02,5.22-2.54,10.81-3.81,16.76-3.81s10.61,1.25,14.19,3.76c3.58,2.51,5.87,6.1,6.88,10.78,1.01,4.68.53,10.33-1.42,16.94l-4.52,15.25c-3.08,10.38-8.13,18.37-15.16,23.96-7.03,5.59-15.56,8.39-25.58,8.39ZM414.98,35.16c-5.08,0-9.64,1.6-13.67,4.79-4.03,3.2-6.82,7.41-8.37,12.64-1.55,5.23-1.26,9.44.88,12.64,2.14,3.2,5.75,4.79,10.84,4.79s9.64-1.6,13.67-4.79c4.03-3.19,6.82-7.41,8.37-12.64,1.55-5.23,1.25-9.44-.89-12.64-2.14-3.2-5.75-4.79-10.84-4.79Z"/>
          <circle class="cls-2" cx="13.31" cy="18.58" r="10.56"/>
        </g>
        <path class="cls-1" d="M222.84,66.88c-.9,0-1.73-.07-2.47-.18-.57-.09-.94-.66-.8-1.22l1.3-5.3-.77,3.16.54-2.27c.11-.48.56-.81,1.06-.76,2.11.22,7.64.15,11.35-5.77.29-.46.86-.63,1.34-.37l3.96,2.17c.49.27.67.9.38,1.37-4.39,7.24-11.09,9.18-15.88,9.18Z"/>
      </g>
    </g>
  </g>
</svg>