<?xml version="1.0" encoding="UTF-8"?>
<svg xmlns="http://www.w3.org/2000/svg" version="1.1" viewBox="0 0 472 106">
  <defs>
    <style>
      .cls-1 {
        fill: #16a87b;
      }
    </style>
  </defs>
  <!-- Generator: Adobe Illustrator 28.6.0, SVG Export Plug-In . SVG Version: 1.2.0 Build 709)  -->
  <g>
    <g id="Layer_1">
      <g id="Layer_1-2" data-name="Layer_1">
        <g>
          <path class="cls-1" d="M55.39.68h-6.77c-2.05,0-3.9,1.26-4.65,3.17l-12.65,32.06c-.03.08-.14.08-.17,0L18.07,3.85c-.78-1.92-2.65-3.17-4.72-3.17h-7.19c-.98,0-1.97.21-2.8.74C1.18,2.82.47,5.45,1.39,7.63l20.72,49.15v.07l-9.31,17.16c-.42,1.02-.59,2.15-.33,3.22.57,2.35,2.62,3.87,4.88,3.87h7.02c2.03,0,3.85-1.22,4.63-3.1L60.16,7.59c.9-2.18.18-4.79-1.99-6.17-.82-.53-1.81-.74-2.78-.74Z"/>
          <path class="cls-1" d="M109.33,18.95h-6.64c-2.29,0-4.22,1.54-4.81,3.63-.13-.08-.25-.16-.38-.24-4.41-2.75-9.66-4.15-15.58-4.15s-10.85,1.31-15.41,3.9c-4.63,2.63-8.29,6.4-10.88,11.2-2.54,4.7-3.82,10.17-3.82,16.26s1.28,11.57,3.81,16.29c2.58,4.84,6.24,8.64,10.86,11.3,4.56,2.63,9.73,3.96,15.34,3.96,5.94,0,11.19-1.42,15.61-4.21.14-.09.28-.18.42-.27.56,2.15,2.52,3.73,4.84,3.73h6.64c2.81,0,5.09-2.28,5.09-5.09V24.04c0-2.81-2.28-5.09-5.09-5.09ZM83.16,65.36c-2.87,0-5.34-.6-7.55-1.85-2.13-1.2-3.77-2.92-5.02-5.26-1.3-2.42-1.95-5.34-1.95-8.7s.65-6.31,1.94-8.66c1.24-2.28,2.88-3.95,5-5.13,2.22-1.23,4.7-1.82,7.58-1.82s5.15.62,7.39,1.89c2.18,1.24,3.87,2.98,5.16,5.32,1.33,2.41,1.97,5.19,1.97,8.5s-.65,6.1-1.97,8.5c-1.29,2.34-2.98,4.07-5.16,5.32-2.24,1.27-4.65,1.89-7.39,1.89Z"/>
          <path class="cls-1" d="M147.66,49.62s-.03-.09,0-.13l21.46-22.05c1.65-1.69,1.92-4.34.51-6.37-.97-1.39-2.64-2.13-4.33-2.13h-9.15c-1.42,0-2.78.6-3.75,1.64l-12.29,13.34c-.06.06-.16.02-.16-.06V5.78c0-2.81-2.28-5.09-5.09-5.09h-6.55c-2.81,0-5.09,2.28-5.09,5.09v69.48c0,2.81,2.28,5.09,5.09,5.09h6.55c2.81,0,5.09-2.28,5.09-5.09v-10.1c0-.08.1-.12.16-.06l12.83,13.68c.95,1.01,2.27,1.58,3.65,1.58h8.9c1.69,0,3.36-.73,4.33-2.13,1.41-2.02,1.14-4.68-.51-6.37l-21.65-22.24h0Z"/>
          <path class="cls-1" d="M333.11,18.95h-6.64c-2.29,0-4.22,1.54-4.81,3.63-.13-.08-.25-.16-.38-.24-4.41-2.75-9.66-4.15-15.58-4.15s-10.85,1.31-15.41,3.9c-4.63,2.63-8.29,6.4-10.88,11.2-2.54,4.7-3.82,10.17-3.82,16.26s1.28,11.57,3.81,16.29c2.58,4.84,6.24,8.64,10.86,11.3,4.56,2.63,9.73,3.96,15.34,3.96,5.94,0,11.19-1.42,15.61-4.21.14-.09.28-.18.42-.27.56,2.15,2.52,3.73,4.84,3.73h6.64c2.81,0,5.09-2.28,5.09-5.09V24.04c0-2.81-2.28-5.09-5.09-5.09h0ZM306.94,65.36c-2.87,0-5.34-.6-7.55-1.85-2.13-1.2-3.77-2.92-5.02-5.26-1.3-2.42-1.95-5.34-1.95-8.7s.65-6.31,1.94-8.66c1.24-2.28,2.88-3.95,5-5.13,2.22-1.23,4.7-1.82,7.58-1.82s5.15.62,7.39,1.89c2.18,1.24,3.87,2.98,5.16,5.32,1.33,2.41,1.97,5.19,1.97,8.5s-.65,6.1-1.97,8.5c-1.29,2.34-2.98,4.07-5.16,5.32-2.24,1.27-4.65,1.89-7.39,1.89Z"/>
          <path class="cls-1" d="M394.23,25.08c-4.92-4.7-11.26-7.08-18.84-7.08-4.78,0-9.16,1.04-13.02,3.08-.19.1-.38.21-.57.31-.87-1.47-2.47-2.45-4.3-2.45h-6.64c-2.81,0-5.09,2.28-5.09,5.09v51.22c0,2.81,2.28,5.09,5.09,5.09h6.55c2.81,0,5.09-2.28,5.09-5.09v-27.96c0-4.72,1.05-8.21,3.13-10.37,2.05-2.13,4.83-3.17,8.51-3.17s6.2.95,8.09,2.9c1.91,1.97,2.87,5.11,2.87,9.33v29.28c0,2.81,2.28,5.09,5.09,5.09h6.45c2.81,0,5.09-2.28,5.09-5.09v-30.03c0-8.6-2.53-15.38-7.51-20.14h.01Z"/>
          <path class="cls-1" d="M465.91,18.95h-6.64c-2.3,0-4.23,1.55-4.82,3.66-.14-.09-.29-.18-.44-.27-4.44-2.75-9.66-4.14-15.52-4.14s-10.85,1.31-15.41,3.9c-4.63,2.63-8.29,6.4-10.88,11.2-2.54,4.7-3.82,10.17-3.82,16.26s1.28,11.57,3.81,16.29c2.58,4.84,6.24,8.64,10.86,11.3,4.56,2.63,9.76,3.96,15.44,3.96s11.1-1.42,15.52-4.21c.09-.05.17-.11.26-.17,0,2.86-.57,5.31-1.68,7.29-1.06,1.91-2.47,3.31-4.3,4.27-1.98,1.04-4.21,1.55-6.81,1.55-3.71,0-6.65-.85-9.13-2.37-1.23-.76-2.97-1.73-3.69-3.72s-2.64-3.57-4.86-3.57h-6.52c-.63,0-1.26.08-1.85.32-2.41.98-3.57,3.39-3.11,5.68,1.35,6.67,3.97,9.92,9.49,13.81,5.3,3.73,11.91,5.62,19.66,5.62,5.55,0,10.61-1.2,15.05-3.55,4.55-2.42,8.14-5.9,10.7-10.36,2.51-4.39,3.79-9.44,3.79-15.01V24.04c0-2.81-2.28-5.09-5.09-5.09h-.01ZM439.74,65.36c-2.87,0-5.34-.6-7.55-1.85-2.13-1.2-3.77-2.92-5.02-5.26-1.3-2.42-1.95-5.34-1.95-8.7s.65-6.31,1.94-8.66c1.24-2.28,2.88-3.95,5-5.13,2.22-1.23,4.7-1.82,7.58-1.82s5.15.62,7.39,1.89c2.18,1.24,3.87,2.98,5.16,5.32,1.33,2.41,1.97,5.19,1.97,8.5s-.65,6.1-1.97,8.5c-1.29,2.34-2.98,4.07-5.16,5.32-2.24,1.27-4.65,1.89-7.39,1.89Z"/>
          <path class="cls-1" d="M265.56,41.91h0c-.9-1.05-1.85-2-2.85-2.85.62-.57,1.22-1.17,1.78-1.81,3.24-3.67,4.89-8.39,4.89-14.01,0-6.76-2.52-12.36-7.48-16.66-4.74-4.09-11.43-6.17-19.9-6.17h-58.17c-2.98,0-5.39,2.41-5.39,5.39v69.43c0,2.98,2.41,5.39,5.39,5.39h58.88c5.58,0,10.52-.99,14.67-2.94,4.36-2.05,7.76-4.95,10.1-8.62,2.34-3.67,3.52-7.83,3.52-12.36,0-5.59-1.83-10.57-5.44-14.79ZM227.3,54.3l-6.34,4.26-1.98,1.33-6.34,4.26c-3.81,2.56-8.97,1.54-11.52-2.27-2.56-3.81-1.54-8.97,2.27-11.52l14.67-9.84c3.81-2.56,8.97-1.54,11.52,2.27,2.56,3.81,1.54,8.97-2.27,11.52h-.01ZM239.48,70.5c-1.81,0-3.47-.6-4.81-1.6-.64-.48-1.21-1.05-1.69-1.69-1-1.35-1.6-3.01-1.6-4.81,0-4.47,3.63-8.1,8.1-8.1,1.81,0,3.47.6,4.81,1.6.64.48,1.21,1.05,1.69,1.69,1,1.35,1.6,3.01,1.6,4.81,0,4.47-3.63,8.1-8.1,8.1ZM249.5,29.12c-1.62,1.38-4.21,2.07-7.71,2.07h-38.49c-3.95,0-7.16-3.2-7.16-7.16s3.2-7.16,7.16-7.16h38.18c3.67,0,6.45.71,8.05,2.05.94.79,2.03,2.08,2.03,5.01s-1.1,4.37-2.06,5.18h0Z"/>
        </g>
      </g>
    </g>
  </g>
</svg>