<?xml version="1.0" standalone="no"?>
<!DOCTYPE svg PUBLIC "-//W3C//DTD SVG 20010904//EN"
 "http://www.w3.org/TR/2001/REC-SVG-20010904/DTD/svg10.dtd">
<svg version="1.0" xmlns="http://www.w3.org/2000/svg"
 width="200.000000pt" height="82.000000pt" viewBox="0 0 200.000000 82.000000"
 preserveAspectRatio="xMidYMid meet">

<g transform="translate(0.000000,82.000000) scale(0.100000,-0.100000)"
fill="#000000" stroke="none">
<path d="M363 795 c-167 -37 -307 -172 -349 -334 -36 -143 20 -265 143 -311
30 -11 61 -20 70 -20 8 0 39 -24 67 -53 83 -86 179 -99 290 -40 55 30 69 59
41 87 -15 14 -19 14 -55 -4 -61 -31 -109 -34 -149 -10 -38 24 -35 30 32 54
233 86 366 406 231 556 -69 76 -191 105 -321 75z m178 -110 c114 -59 108 -236
-11 -355 -90 -90 -231 -125 -319 -78 -69 36 -86 66 -86 151 1 79 20 128 76
192 85 97 245 139 340 90z"/>
<path d="M1097 799 c-78 -19 -133 -64 -161 -131 -21 -48 -20 -74 3 -124 l19
-41 -44 -22 c-94 -45 -173 -144 -174 -216 0 -47 35 -94 87 -117 72 -32 189
-23 279 22 l67 33 26 -32 c29 -35 41 -38 76 -15 36 24 38 43 9 85 l-26 38 41
57 c47 65 52 96 18 111 -31 15 -49 3 -82 -53 -15 -25 -30 -42 -34 -37 -10 11
-76 106 -84 119 -4 7 20 29 58 53 126 82 158 211 65 261 -26 14 -103 19 -143
9z m97 -102 c16 -26 -10 -66 -69 -104 -60 -40 -68 -40 -83 -8 -20 43 -14 74
18 106 26 26 36 30 76 27 32 -2 51 -9 58 -21z m-129 -338 c55 -78 57 -83 39
-96 -24 -18 -110 -43 -146 -43 -46 0 -97 26 -103 53 -8 30 12 72 52 108 25 24
79 58 94 59 3 0 32 -37 64 -81z"/>
<path d="M1763 752 c-204 -260 -428 -566 -428 -585 0 -19 6 -22 42 -25 41 -3
41 -3 100 78 l58 80 165 -2 165 -3 12 -75 c6 -41 12 -76 12 -77 1 -2 24 -3 51
-3 32 0 52 5 55 13 3 6 -17 149 -44 316 -52 331 -52 331 -118 331 -27 0 -39
-8 -70 -48z m71 -214 c9 -68 16 -129 16 -135 0 -10 -31 -13 -121 -13 -66 0
-119 4 -117 8 6 17 193 262 199 262 3 0 14 -55 23 -122z"/>
<path d="M1328 589 c-21 -12 -24 -59 -6 -77 19 -19 65 -14 82 9 33 47 -25 98
-76 68z"/>
</g>
</svg>
